HIERARCHY
ROOT Hips
{
	OFFSET 0.00000 0.00000 0.00000
	CHANNELS 6 Xposition Yposition Zposition Zrotation Yrotation Xrotation 
	JOINT RightUpLegDummy
	{
		OFFSET 0 0 0
		CHANNELS 3 Zrotation Yrotation Xrotation
		JOINT RightUpLeg
		{
			OFFSET -3.52197 -3.41223 0.04002
			CHANNELS 3 Zrotation Yrotation Xrotation
			JOINT RightLeg
			{
				OFFSET 0.00006 -17.42390 1.60435
				CHANNELS 3 Zrotation Yrotation Xrotation
				JOINT RightFoot
				{
					OFFSET 0.06153 -16.50078 -1.63901
					CHANNELS 3 Zrotation Yrotation Xrotation
					JOINT RightToes
					{
						OFFSET 0.00298 -1.73825 3.34613
						CHANNELS 3 Zrotation Yrotation Xrotation
						End Site
						{
							OFFSET 0.00480 -0.05416 3.85043
						}
					}
				}
			}
		}
	}
	JOINT SpineDummy
	{
		OFFSET 0 0 0
		CHANNELS 3 Zrotation Yrotation Xrotation
		JOINT Spine
		{
			OFFSET 0.00000 4.68130 0.00000
			CHANNELS 3 Zrotation Yrotation Xrotation
			JOINT Spine1
			{
				OFFSET -0.00000 10.10138 0.05002
				CHANNELS 3 Zrotation Yrotation Xrotation
				JOINT HEadDummy
				{
					OFFSET 0 0 0
					CHANNELS 3 Zrotation Yrotation Xrotation
					JOINT Head
					{
						OFFSET -0.00000 3.43865 0.00438
						CHANNELS 3 Zrotation Yrotation Xrotation
						End Site
						{
							OFFSET -0.11417 5.02924 0.98962
						}
					}
				}
				JOINT LeftShoulder1Dummy
				{
					OFFSET 0 0 0
					CHANNELS 3 Zrotation Yrotation Xrotation
					JOINT LeftShoulder1
					{
						OFFSET 3.53937 -0.14262 -0.08662
						CHANNELS 3 Zrotation Yrotation Xrotation
						JOINT LeftArm
						{
							OFFSET 4.04833 -0.00133 0.12681
							CHANNELS 3 Zrotation Yrotation Xrotation
							JOINT LeftForeArm
							{
								OFFSET 10.33880 -0.01036 -0.55515
								CHANNELS 3 Zrotation Yrotation Xrotation
								JOINT LeftHand
								{
									OFFSET 8.69677 0.07543 0.40060
									CHANNELS 3 Zrotation Yrotation Xrotation
									End Site
									{
										OFFSET 5.28377 -0.21905 0.59205
									}
								}
							}
						}
					}
				}
				JOINT RightShoulderDummy
				{
					OFFSET 0 0 0
					CHANNELS 3 Zrotation Yrotation Xrotation
					JOINT RightShoulder
					{
						OFFSET -3.53937 -0.14262 -0.08660
						CHANNELS 3 Zrotation Yrotation Xrotation
						JOINT RightArm
						{
							OFFSET -4.04833 -0.00133 0.12683
							CHANNELS 3 Zrotation Yrotation Xrotation
							JOINT RightForeArm
							{
								OFFSET -10.37987 -0.01039 -0.55511
								CHANNELS 3 Zrotation Yrotation Xrotation
								JOINT RightHand
								{
									OFFSET -8.67398 0.07538 0.40058
									CHANNELS 3 Zrotation Yrotation Xrotation
									End Site
									{
										OFFSET -5.24810 -0.21916 0.59204
									}
								}
							}
						}
					}
				}
			}
		}
	}
	JOINT LeftUpLegDummy
	{
		OFFSET 0 0 0
		CHANNELS 3 Zrotation Yrotation Xrotation
		JOINT LeftUpLeg
		{
			OFFSET 3.52197 -3.41223 0.04002
			CHANNELS 3 Zrotation Yrotation Xrotation
			JOINT LeftLeg
			{
				OFFSET -0.00012 -17.42399 1.60337
				CHANNELS 3 Zrotation Yrotation Xrotation
				JOINT LeftFoot
				{
					OFFSET -0.09972 -16.50070 -1.63802
					CHANNELS 3 Zrotation Yrotation Xrotation
					JOINT LeftToes
					{
						OFFSET -0.01575 -1.73823 3.34611
						CHANNELS 3 Zrotation Yrotation Xrotation
						End Site
						{
							OFFSET 0.03150 -0.01868 3.85031
						}
					}
				}
			}
		}
	}
}
MOTION
Frames: 12
Frame Time: 0.033333
-0.8905 40.0285 -2.4504 -1.9314 -5.3218 -2.5003 0.0000 0.0000 0.0000 -2.2717 -2.6859 0.5397 -1.3764 1.6049 3.7576 2.6883 -0.2384 -1.3885 0.0000 -0.0000 0.0000 0.0000 0.0000 0.0000 0.9248 -0.9425 0.5519 3.5559 -1.8149 3.7746 -0.0000 0.0000 -0.0000 6.9403 -7.3637 -5.9477 -0.0000 0.0000 -0.0000 -33.9906 -2.9861 2.6016 -46.1355 -18.8854 -19.3825 -8.7870 5.1466 48.1068 13.9538 -3.6682 -1.0534 -0.0000 0.0000 -0.0000 34.6993 5.1839 3.5374 38.2188 10.0286 -15.4125 11.2284 -3.1147 27.0205 -14.1435 3.1636 -1.0192 0.0000 0.0000 0.0000 5.4505 4.0016 2.9017 3.2763 12.5759 7.3801 -1.8713 0.1231 -5.5663 0.0000 0.0000 -0.0000
-0.8959 40.0285 -2.4536 -1.9105 -5.2377 -2.5339 0.0000 0.0000 0.0000 -2.2888 -2.7033 0.5732 -1.3872 1.5352 3.7755 2.7114 -0.2398 -1.4102 0.0000 -0.0000 0.0000 0.0000 0.0000 0.0000 0.8537 -0.9662 0.8238 3.6398 -1.8425 3.4730 -0.0000 0.0000 -0.0000 6.8959 -7.3654 -5.9629 -0.0000 0.0000 -0.0000 -34.0826 -2.9810 2.6000 -46.0711 -18.9354 -19.2811 -8.8511 5.1474 48.0557 13.8689 -3.7398 -1.0577 -0.0000 0.0000 -0.0000 34.7962 5.2041 3.5542 38.1648 9.8876 -15.4563 11.2060 -3.0179 26.8606 -13.7960 2.8712 -0.9609 0.0000 0.0000 0.0000 5.4239 3.9685 2.9294 3.2799 12.5189 7.3454 -1.8713 0.1231 -5.5330 0.0000 0.0000 -0.0000
-0.9046 40.0285 -2.4579 -1.8749 -5.1132 -2.5573 0.0000 0.0000 0.0000 -2.3180 -2.7221 0.5766 -1.3989 1.4361 3.8415 2.7210 -0.2402 -1.4554 0.0000 -0.0000 0.0000 0.0000 0.0000 0.0000 0.7700 -1.0255 1.1376 3.6956 -1.8995 3.1602 -0.0000 0.0000 -0.0000 6.8950 -7.3473 -6.0173 -0.0000 0.0000 -0.0000 -34.1207 -2.9443 2.5888 -46.0767 -18.9756 -18.9861 -9.0148 5.1499 47.9098 13.7209 -3.8738 -1.0655 -0.0000 0.0000 -0.0000 35.0570 5.2486 3.5956 38.0294 9.7420 -15.4070 11.2325 -2.8247 26.3649 -13.2723 2.1886 -0.8496 0.0000 0.0000 0.0000 5.3921 3.9369 2.9335 3.2742 12.4216 7.3124 -1.8713 0.1231 -5.4984 0.0000 0.0000 -0.0000
-0.9127 40.0295 -2.4583 -1.8583 -5.0349 -2.5077 0.0000 0.0000 0.0000 -2.3279 -2.7339 0.5226 -1.3966 1.3754 3.8646 2.7062 -0.2393 -1.4625 0.0000 -0.0000 0.0000 0.0000 0.0000 0.0000 0.7825 -1.0802 1.2037 3.6060 -1.9358 3.1235 -0.0000 0.0000 -0.0000 6.9788 -7.2245 -6.1010 -0.0000 0.0000 -0.0000 -33.9897 -2.9019 2.5633 -46.2444 -19.0159 -18.7147 -9.1285 5.1496 47.8753 13.7109 -3.9455 -1.0720 -0.0000 0.0000 -0.0000 35.3344 5.2884 3.6368 37.9717 9.7141 -15.2040 11.3387 -2.6941 25.8797 -13.1277 1.9273 -0.8126 0.0000 0.0000 0.0000 5.3833 3.9270 2.8687 3.2611 12.3573 7.2942 -1.8705 0.1230 -5.4730 0.0000 0.0000 -0.0000
-0.9197 40.0334 -2.4527 -1.8645 -5.0327 -2.4179 0.0000 0.0000 0.0000 -2.3138 -2.7460 0.4696 -1.3819 1.3750 3.7943 2.6904 -0.2379 -1.4161 0.0000 -0.0000 0.0000 0.0000 0.0000 0.0000 0.8762 -1.0865 1.1286 3.4335 -1.9124 3.2054 -0.0000 0.0000 -0.0000 7.0720 -7.0352 -6.1557 -0.0000 0.0000 -0.0000 -33.8026 -2.8857 2.5448 -46.4613 -19.0860 -18.6249 -9.1230 5.1466 47.9818 13.8959 -3.8807 -1.0798 -0.0000 0.0000 -0.0000 35.4957 5.3056 3.6584 38.0846 9.7127 -14.9941 11.4345 -2.6399 25.8259 -13.2755 2.4224 -0.8750 0.0000 0.0000 0.0000 5.3889 3.9209 2.7988 3.2643 12.3700 7.2540 -1.8892 0.1242 -5.4427 0.0000 0.0000 -0.0000
-0.9268 40.0363 -2.4430 -1.8635 -5.0717 -2.3601 0.0000 0.0000 0.0000 -2.3061 -2.7561 0.4441 -1.3676 1.4113 3.7385 2.6838 -0.2371 -1.3978 0.0000 -0.0000 0.0000 0.0000 0.0000 0.0000 0.9230 -1.0562 1.1335 3.3464 -1.8630 3.1760 -0.0000 0.0000 -0.0000 7.1003 -6.9931 -6.1444 -0.0000 0.0000 -0.0000 -33.7424 -2.8851 2.5406 -46.5656 -19.1160 -18.6006 -9.1138 5.1471 47.9679 14.0762 -3.7451 -1.0789 -0.0000 0.0000 -0.0000 35.5503 5.3077 3.6639 38.2746 9.6396 -14.9105 11.4347 -2.5185 26.1440 -13.2026 2.8722 -0.9181 0.0000 0.0000 0.0000 5.3839 3.9076 2.7883 3.2777 12.4279 7.1959 -1.9228 0.1264 -5.4191 0.0000 0.0000 -0.0000
-0.9338 40.0373 -2.4314 -1.8423 -5.0811 -2.3411 0.0000 0.0000 0.0000 -2.3215 -2.7606 0.4205 -1.3604 1.4282 3.7803 2.6749 -0.2361 -1.4551 0.0000 -0.0000 0.0000 0.0000 0.0000 0.0000 0.8446 -1.0386 1.2313 3.4223 -1.8524 3.0382 -0.0000 0.0000 -0.0000 7.0701 -7.1961 -6.0974 -0.0000 0.0000 -0.0000 -33.8413 -2.8902 2.5491 -46.5231 -19.0243 -18.4943 -9.1989 5.1529 47.7343 14.1080 -3.6694 -1.0728 -0.0000 0.0000 -0.0000 35.5691 5.3109 3.6669 38.4155 9.5159 -14.8776 11.3943 -2.2834 26.3492 -12.8600 2.5828 -0.8634 0.0000 0.0000 0.0000 5.3636 3.8918 2.8058 3.2828 12.4554 7.1587 -1.9385 0.1274 -5.4169 0.0000 0.0000 -0.0000
-0.9397 40.0375 -2.4155 -1.8250 -5.0338 -2.3172 0.0000 0.0000 0.0000 -2.3365 -2.7651 0.3984 -1.3602 1.3901 3.8417 2.6598 -0.2348 -1.5230 0.0000 -0.0000 0.0000 0.0000 0.0000 0.0000 0.7032 -1.0463 1.2843 3.5844 -1.8850 2.9266 -0.0000 0.0000 -0.0000 7.0038 -7.4165 -6.0551 -0.0000 0.0000 -0.0000 -33.9899 -2.9214 2.5711 -46.4108 -18.8719 -18.3703 -9.3100 5.1576 47.5281 14.1261 -3.6835 -1.0758 -0.0000 0.0000 -0.0000 35.5701 5.3143 3.6679 38.5030 9.4074 -14.7666 11.4255 -2.0910 26.1120 -12.7559 1.9912 -0.7953 0.0000 0.0000 0.0000 5.3443 3.8723 2.8002 3.2895 12.4332 7.1471 -1.9281 0.1267 -5.4266 0.0000 0.0000 -0.0000
-0.9439 40.0370 -2.3921 -1.8252 -4.9936 -2.2777 0.0000 0.0000 0.0000 -2.3304 -2.7654 0.4111 -1.3708 1.3444 3.8199 2.6470 -0.2339 -1.5368 0.0000 -0.0000 0.0000 0.0000 0.0000 0.0000 0.5884 -1.0479 1.2328 3.7335 -1.9136 2.9156 -0.0000 0.0000 -0.0000 6.8843 -7.3919 -6.0109 -0.0000 0.0000 -0.0000 -34.1079 -2.9688 2.5978 -46.3015 -18.7885 -18.3476 -9.3523 5.1576 47.5106 14.2689 -3.6957 -1.0885 -0.0000 0.0000 -0.0000 35.5210 5.3159 3.6650 38.6051 9.3554 -14.6349 11.5145 -2.0726 25.6293 -13.1079 1.8225 -0.8004 0.0000 0.0000 0.0000 5.3293 3.8431 2.8054 3.3129 12.4315 7.1084 -1.9215 0.1263 -5.4283 0.0000 0.0000 -0.0000
-0.9462 40.0359 -2.3651 -1.8235 -5.0388 -2.2494 0.0000 0.0000 0.0000 -2.3207 -2.7558 0.4321 -1.3877 1.3759 3.7897 2.6371 -0.2333 -1.5541 0.0000 -0.0000 0.0000 0.0000 0.0000 0.0000 0.5102 -1.0310 1.1317 3.8351 -1.9180 2.9986 -0.0000 0.0000 -0.0000 6.7307 -7.1899 -5.9567 -0.0000 0.0000 -0.0000 -34.1857 -2.9732 2.6047 -46.2271 -18.7729 -18.3964 -9.3449 5.1564 47.5445 14.4017 -3.6540 -1.0942 -0.0000 0.0000 -0.0000 35.4059 5.3131 3.6534 38.7447 9.3777 -14.6181 11.5486 -2.1401 25.3313 -13.4911 1.9800 -0.8414 0.0000 0.0000 0.0000 5.3110 3.8192 2.8548 3.3413 12.5053 7.0570 -1.9457 0.1278 -5.4444 0.0000 0.0000 -0.0000
-0.9475 40.0332 -2.3413 -1.8166 -5.1427 -2.2442 0.0000 0.0000 0.0000 -2.3208 -2.7338 0.4161 -1.3913 1.4693 3.8592 2.6349 -0.2329 -1.6373 0.0000 -0.0000 0.0000 0.0000 0.0000 0.0000 0.4545 -1.0203 1.0732 3.8661 -1.9149 3.0926 -0.0000 0.0000 -0.0000 6.6571 -7.0696 -5.9198 -0.0000 0.0000 -0.0000 -34.1902 -2.9229 2.5848 -46.2006 -18.7294 -18.4333 -9.3390 5.1548 47.5424 14.3696 -3.6325 -1.0891 -0.0000 0.0000 -0.0000 35.2800 5.3028 3.6378 38.8670 9.4223 -14.6907 11.5013 -2.1300 25.3979 -13.5164 1.9866 -0.8438 0.0000 0.0000 0.0000 5.3056 3.8273 2.8990 3.3592 12.5970 7.0880 -1.9956 0.1311 -5.5155 0.0000 0.0000 -0.0000
-0.9480 40.0267 -2.3198 -1.8377 -5.2055 -2.2528 0.0000 0.0000 0.0000 -2.3037 -2.7082 0.4019 -1.3791 1.5083 3.9672 2.6559 -0.2340 -1.7339 0.0000 -0.0000 0.0000 0.0000 0.0000 0.0000 0.4368 -1.0245 1.1195 3.8048 -1.9044 3.0773 -0.0000 0.0000 -0.0000 6.7451 -7.1086 -5.9005 -0.0000 0.0000 -0.0000 -34.0821 -2.8958 2.5669 -46.2090 -18.6630 -18.4483 -9.3335 5.1541 47.6023 14.3367 -3.6943 -1.0938 -0.0000 0.0000 -0.0000 35.2438 5.2900 3.6293 38.8912 9.3778 -14.7447 11.4488 -2.0389 25.6796 -13.2800 1.8752 -0.8167 0.0000 0.0000 0.0000 5.3386 3.8613 2.8890 3.3841 12.6157 7.2397 -2.0489 0.1345 -5.6394 0.0000 0.0000 -0.0000
